<?xml version="1.0" encoding="UTF-8" standalone="no"?>
<!DOCTYPE svg PUBLIC "-//W3C//DTD SVG 1.1//EN" "http://www.w3.org/Graphics/SVG/1.1/DTD/svg11.dtd">
<svg width="100%" height="100%" viewBox="0 0 1080 1080" version="1.1" xmlns="http://www.w3.org/2000/svg" xmlns:xlink="http://www.w3.org/1999/xlink" xml:space="preserve" xmlns:serif="http://www.serif.com/" style="fill-rule:evenodd;clip-rule:evenodd;stroke-linejoin:round;stroke-miterlimit:2;">
    <rect x="0" y="0" width="1080" height="1080" style="fill:white;"/>
    <g transform="matrix(1.38765,0.127377,-0.127377,1.38765,-136.649,-344.941)">
        <g transform="matrix(-0.516041,-5.17545e-17,1.1656e-16,-1,729.449,1304.06)">
            <rect x="346.4" y="728" width="20.8" height="195.2" style="fill:rgb(28,155,240);"/>
        </g>
        <g transform="matrix(-0.429864,-4.85723e-17,4.85723e-17,-0.429864,720.538,534.396)">
            <circle cx="407.6" cy="424.4" r="88.4" style="fill:rgb(28,155,240);"/>
        </g>
    </g>
    <g transform="matrix(-0.147215,-0.551676,1.06905,-0.285278,-179.048,928.408)">
        <rect x="346.4" y="728" width="20.8" height="195.2" style="fill:rgb(28,155,240);"/>
    </g>
    <g transform="matrix(-0.122631,-0.459548,0.459548,-0.122631,641.218,699.314)">
        <circle cx="407.6" cy="424.4" r="88.4" style="fill:rgb(28,155,240);"/>
    </g>
    <g transform="matrix(-0.861011,1.21854,-1.21854,-0.861011,1718.18,355.375)">
        <g transform="matrix(-0.516041,-5.17545e-17,1.1656e-16,-1,729.449,1304.06)">
            <rect x="346.4" y="728" width="20.8" height="195.2" style="fill:rgb(28,155,240);"/>
        </g>
        <g transform="matrix(-0.429864,-4.85723e-17,4.85723e-17,-0.429864,720.538,534.396)">
            <circle cx="407.6" cy="424.4" r="88.4" style="fill:rgb(28,155,240);"/>
        </g>
    </g>
    <g transform="matrix(-1.51082,0.115017,-0.115017,-1.51082,1436.84,1331.48)">
        <g transform="matrix(-0.516041,-5.17545e-17,1.1656e-16,-1,729.449,1304.06)">
            <rect x="346.4" y="728" width="20.8" height="195.2" style="fill:rgb(28,155,240);"/>
        </g>
        <g transform="matrix(-0.429864,-4.85723e-17,4.85723e-17,-0.429864,720.538,534.396)">
            <circle cx="407.6" cy="424.4" r="88.4" style="fill:rgb(28,155,240);"/>
        </g>
    </g>
    <g transform="matrix(-0.224619,-1.30648,1.30648,-0.224619,-83.416,1365.73)">
        <g transform="matrix(-0.516041,-5.17545e-17,1.1656e-16,-1,729.449,1304.06)">
            <rect x="346.4" y="728" width="20.8" height="195.2" style="fill:rgb(28,155,240);"/>
        </g>
        <g transform="matrix(-0.429864,-4.85723e-17,4.85723e-17,-0.429864,720.538,534.396)">
            <circle cx="407.6" cy="424.4" r="88.4" style="fill:rgb(28,155,240);"/>
        </g>
    </g>
    <g transform="matrix(1.05072,-0.874039,0.874039,1.05072,-529.782,395.25)">
        <g transform="matrix(-0.516041,-5.17545e-17,1.1656e-16,-1,729.449,1304.06)">
            <rect x="346.4" y="728" width="20.8" height="195.2" style="fill:rgb(28,155,240);"/>
        </g>
        <g transform="matrix(-0.429864,-4.85723e-17,4.85723e-17,-0.429864,720.538,534.396)">
            <circle cx="407.6" cy="424.4" r="88.4" style="fill:rgb(28,155,240);"/>
        </g>
    </g>
    <g transform="matrix(1.63253,0.149855,-0.149855,1.63253,-55.1254,-230.041)">
        <circle cx="407.6" cy="424.4" r="88.4" style="fill:rgb(28,155,240);"/>
    </g>
    <g transform="matrix(1.30772,0.12004,-0.12004,1.30772,64.6132,-80.0394)">
        <path d="M407.6,336C456.389,336 496,375.611 496,424.4C496,473.189 456.389,512.8 407.6,512.8C358.811,512.8 319.2,473.189 319.2,424.4C319.2,375.611 358.811,336 407.6,336ZM407.6,344.897C363.721,344.897 328.097,380.521 328.097,424.4C328.097,468.279 363.721,503.903 407.6,503.903C451.479,503.903 487.103,468.279 487.103,424.4C487.103,380.521 451.479,344.897 407.6,344.897Z" style="fill:white;"/>
    </g>
    <g>
        <g transform="matrix(-0.062241,-0.344663,0.344663,-0.062241,234.79,880.077)">
            <circle cx="407.6" cy="424.4" r="88.4" style="fill:rgb(28,155,240);"/>
        </g>
        <g transform="matrix(1.13806,0.804139,-0.804139,1.13806,382.249,-626.017)">
            <path d="M597.39,432.767L617.034,472.056L577.745,472.056L597.39,432.767Z" style="fill:rgb(28,155,240);"/>
        </g>
        <g transform="matrix(0.933246,0.709583,-0.590209,0.776245,780.561,-429.424)">
            <path d="M346.4,805.373L346.4,728L367.2,728L367.2,811.5C360.47,808.566 353.492,806.511 346.4,805.373Z" style="fill:rgb(28,155,240);"/>
        </g>
        <g transform="matrix(-0.914497,-0.733589,0.862572,-1.07529,67.1524,1740.68)">
            <path d="M367.2,728L367.2,828.044C360.489,825.764 353.51,824.116 346.4,823.122L346.4,728L367.2,728Z" style="fill:rgb(28,155,240);"/>
        </g>
    </g>
    <path d="M460.373,601.473C454.727,595.189 449.767,588.297 445.596,580.923L527.676,478.602L528.346,479.14L528.766,478.602L573.684,513.635L628.499,441.542C634.446,447.458 639.745,454.004 644.294,461.057L578.368,547.764L578.007,547.49L577.793,547.764L532.066,512.1L460.373,601.473Z" style="fill:white;"/>
</svg>
